<svg xmlns="http://www.w3.org/2000/svg" width="512" height="512" viewBox="0 0 128 128">
  <defs>
    <linearGradient id="g" x1="0" y1="0" x2="1" y2="1">
      <stop offset="0" stop-color="#0b72e7"/>
      <stop offset="1" stop-color="#00c2ff"/>
    </linearGradient>
  </defs>
  <rect x="8" y="8" width="112" height="112" rx="24" fill="url(#g)"/>
  <g fill="#fff">
    <path d="M34 64a6 6 0 0 1 6-6h24a6 6 0 0 1 0 12H40a6 6 0 0 1-6-6z"/>
    <circle cx="88" cy="58" r="8"/>
    <path d="M30 80h46a18 18 0 0 0 18-18v-2a6 6 0 1 1 12 0v2a30 30 0 0 1-30 30H30a6 6 0 0 1 0-12z"/>
  </g>
  <text x="64" y="112" font-family="Arial, Helvetica, sans-serif" font-size="14" text-anchor="middle" fill="#fff">JOBPULSE</text>
</svg>
