<svg xmlns="http://www.w3.org/2000/svg" width="512" height="512" viewBox="0 0 64 64">
  <defs>
    <linearGradient id="g" x1="0" y1="0" x2="1" y2="1">
      <stop stop-color="#0ea5e9"/>
      <stop offset="1" stop-color="#7c3aed"/>
    </linearGradient>
  </defs>
  <!-- Rounded square background -->
  <rect x="2" y="2" width="60" height="60" rx="14" fill="url(#g)"/>
  <!-- JP monogram -->
  <g fill="#fff">
    <!-- J -->
    <path d="M22 16h6v22c0 6-4 10-10 10-2.7 0-5-.6-7-1.8l2.3-5.1c1.3.7 2.7 1.1 4.2 1.1 2.9 0 4.5-1.7 4.5-4.7V16z"/>
    <!-- P -->
    <path d="M34 16h10c6 0 10 3.8 10 9.4 0 5.9-4.3 9.6-10.7 9.6H40v13h-6V16zm6 5.6v8h4c2.9 0 4.8-1.6 4.8-4 0-2.6-1.9-4-4.8-4h-4z"/>
  </g>
</svg>
